<?xml version="1.0" standalone="no"?>
<!DOCTYPE svg PUBLIC "-//W3C//DTD SVG 20010904//EN"
 "http://www.w3.org/TR/2001/REC-SVG-20010904/DTD/svg10.dtd">
<svg version="1.0" xmlns="http://www.w3.org/2000/svg"
 width="600.000000pt" height="600.000000pt" viewBox="0 0 600.000000 600.000000"
 preserveAspectRatio="xMidYMid meet">

<g transform="translate(0.000000,492.000000) scale(0.100000,-0.100000)"
fill="#FDFDFD" stroke="none">
<path d="M3706 4820 c-4 -41 -36 -318 -71 -615 -95 -810 -108 -926 -102 -931
3 -3 67 14 142 37 l137 43 -6 121 c-4 66 -16 266 -26 445 -11 179 -27 447 -35
595 -9 149 -19 295 -23 325 l-8 55 -8 -75z"/>
<path d="M1780 4404 c0 -4 141 -220 313 -478 172 -259 387 -583 477 -719 l163
-248 84 83 c47 46 93 95 104 110 l20 28 -323 342 c-177 189 -399 424 -493 523
-93 99 -209 222 -257 273 -49 51 -88 90 -88 86z"/>
<path d="M4871 3713 c-335 -339 -536 -550 -528 -554 7 -3 81 -19 165 -34 131
-24 155 -26 166 -14 8 8 172 259 366 559 194 300 359 555 368 568 8 12 12 22
9 22 -3 0 -248 -246 -546 -547z"/>
<path d="M3495 3183 c-16 -2 -39 -6 -51 -8 l-21 -5 20 -74 20 -75 31 5 c53 10
56 12 56 51 0 50 -11 113 -19 112 -3 -1 -19 -4 -36 -6z"/>
<path d="M3705 3123 c4 -38 9 -71 12 -75 2 -5 21 -8 42 -8 l38 0 11 67 c6 36
9 70 6 75 -3 4 -30 8 -60 8 l-56 0 7 -67z"/>
<path d="M420 3166 c0 -2 60 -36 133 -74 72 -38 233 -124 357 -189 1090 -580
1229 -653 1239 -653 5 0 13 10 16 21 4 12 43 98 87 192 44 93 76 173 71 177
-4 4 -159 49 -343 99 -184 51 -429 119 -545 151 -451 126 -1007 280 -1011 280
-2 0 -4 -2 -4 -4z"/>
<path d="M3985 3084 c-8 -72 -2 -84 46 -84 21 0 28 8 45 53 28 75 32 68 -58
90 -26 7 -26 6 -33 -59z"/>
<path d="M5715 3039 c-132 -60 -283 -129 -335 -153 -52 -24 -168 -77 -257
-117 -90 -40 -159 -77 -155 -80 4 -4 57 -28 119 -53 l112 -46 363 260 c413
297 417 299 403 299 -5 0 -118 -50 -250 -110z"/>
<path d="M3221 3119 c-30 -10 -56 -21 -58 -23 -2 -2 12 -38 32 -81 28 -63 38
-76 52 -70 10 3 31 9 47 12 26 6 28 8 22 45 -12 76 -28 138 -34 137 -4 0 -31
-9 -61 -20z"/>
<path d="M4253 3033 c-3 -10 -12 -33 -19 -52 -18 -44 -18 -44 16 -64 l29 -18
35 48 c20 26 36 51 36 55 0 7 -73 48 -85 48 -3 0 -8 -8 -12 -17z"/>
<path d="M2955 3009 c-27 -16 -49 -33 -48 -38 5 -19 95 -141 104 -141 5 0 27
9 49 20 l39 20 -29 81 c-17 44 -30 82 -30 85 0 11 -40 -1 -85 -27z"/>
<path d="M4468 2876 c-34 -52 -34 -60 -7 -80 20 -14 25 -12 65 22 l44 36 -32
33 c-18 18 -34 33 -37 33 -4 0 -18 -20 -33 -44z"/>
<path d="M2745 2879 c-22 -17 -49 -37 -60 -45 -19 -14 -17 -17 52 -86 l72 -72
41 29 c22 16 43 31 45 34 4 8 -94 171 -103 171 -4 0 -25 -14 -47 -31z"/>
<path d="M3600 2870 c-106 -18 -400 -145 -520 -225 -142 -94 -505 -438 -584
-553 -26 -37 -84 -195 -101 -273 -6 -25 -9 -28 -18 -16 -7 8 -63 29 -126 46
-90 25 -116 29 -123 19 -4 -7 -8 -16 -8 -20 0 -4 -24 -9 -52 -13 -78 -9 -940
-114 -1523 -187 l-510 -63 95 -7 c52 -4 288 -17 525 -28 1058 -50 1274 -61
1343 -66 l72 -6 0 -79 0 -79 55 0 56 0 -7 -48 c-7 -55 11 -102 49 -127 12 -8
52 -20 87 -27 59 -12 65 -16 68 -39 3 -24 -51 -60 -803 -544 -443 -285 -804
-519 -802 -521 2 -2 32 7 68 21 35 13 217 80 404 149 187 68 513 188 725 266
l385 142 133 -6 c74 -3 138 -9 143 -12 5 -3 32 -50 59 -105 l50 -99 63 0 c159
0 494 48 692 99 262 68 541 217 519 276 -7 18 -71 41 -148 55 -33 5 -162 10
-286 10 -598 0 -766 54 -814 259 -10 41 -24 74 -42 92 -24 25 -25 31 -15 60 6
18 11 93 11 167 l0 136 40 81 c22 46 54 95 73 112 18 16 78 47 132 69 83 33
109 49 170 106 79 74 112 87 220 88 41 0 73 -6 100 -20 57 -29 73 -25 125 28
70 73 85 111 85 217 0 126 1 125 -88 125 -170 0 -394 -62 -514 -142 -40 -27
-99 -79 -132 -116 -44 -48 -64 -63 -72 -55 -15 15 6 53 76 139 157 192 311
317 563 454 62 33 158 88 212 120 55 33 103 60 109 60 5 0 18 -16 29 -35 17
-28 44 -45 149 -95 303 -145 416 -206 470 -254 64 -57 176 -194 204 -248 21
-42 44 -52 34 -15 -30 105 -170 332 -253 409 -101 94 -430 273 -567 308 -81
21 -198 25 -285 10z"/>
<path d="M2532 2690 l-54 -58 76 -51 c42 -29 83 -54 90 -57 16 -6 75 52 76 73
0 12 -120 154 -130 152 -3 -1 -29 -27 -58 -59z"/>
<path d="M4650 2705 c-32 -33 -33 -34 -16 -60 l17 -26 42 24 c23 14 43 29 44
34 4 11 -34 63 -46 63 -4 0 -22 -16 -41 -35z"/>
<path d="M2376 2490 l-47 -71 96 -44 c53 -25 100 -45 103 -45 8 0 62 87 62 98
-1 6 -145 123 -160 130 -4 1 -28 -29 -54 -68z"/>
<path d="M2259 2263 c-19 -42 -35 -80 -37 -84 -3 -6 227 -73 233 -67 7 6 45
99 45 108 0 8 -189 120 -201 120 -3 0 -21 -35 -40 -77z"/>
<path d="M4064 2316 c-43 -19 -59 -64 -59 -161 1 -99 17 -155 56 -200 36 -41
45 -42 76 -13 19 18 38 22 106 26 139 7 211 -27 290 -138 23 -33 50 -62 60
-66 29 -9 75 6 107 36 59 56 31 144 -80 243 -62 56 -166 120 -241 148 -57 22
-161 26 -219 9 -43 -12 -40 -13 -40 5 0 36 126 66 242 57 48 -4 84 -4 80 -1
-4 4 -45 19 -92 34 -103 33 -239 43 -286 21z"/>
<path d="M2171 2014 c-12 -47 -20 -88 -17 -91 6 -6 230 -33 235 -28 6 7 30
119 26 123 -5 5 -207 82 -215 82 -3 0 -16 -39 -29 -86z"/>
<path d="M3705 1807 c-27 -13 -63 -37 -79 -53 -42 -42 -78 -125 -74 -171 3
-38 4 -38 52 -43 50 -5 74 -24 64 -52 -4 -8 -34 -25 -67 -37 -74 -27 -126 -76
-141 -132 -17 -61 0 -68 43 -16 20 25 62 58 97 76 l63 34 132 -5 c120 -4 137
-7 186 -32 30 -15 79 -53 111 -83 61 -60 84 -63 72 -10 -12 57 -32 84 -129
168 -52 46 -95 90 -95 98 0 11 13 12 65 7 79 -8 85 0 60 73 -22 68 -91 142
-156 171 -79 34 -144 36 -204 7z"/>
<path d="M3584 1286 c-17 -8 -39 -24 -48 -37 -33 -48 -29 -49 157 -43 128 4
199 2 277 -9 57 -9 106 -14 109 -12 2 2 1 11 -3 20 -8 21 -95 59 -183 79 -89
20 -265 21 -309 2z"/>
</g>
</svg>
