<svg id="svg" version="1.1" xmlns="http://www.w3.org/2000/svg" xmlns:xlink="http://www.w3.org/1999/xlink" width="400" height="328" viewBox="0, 0, 400,328"><g id="svgg"><path id="path0" d="M247.120 2.167 C 246.726 4.529,241.602 47.299,237.276 84.333 C 235.777 97.167,234.404 108.301,234.226 109.076 C 234.031 109.923,234.279 110.631,234.848 110.849 C 235.621 111.146,253.721 105.731,254.589 104.944 C 254.729 104.816,254.197 93.377,253.407 79.523 C 252.616 65.668,251.365 43.383,250.625 30.000 C 249.202 4.257,248.829 0.000,247.998 -0.000 C 247.714 -0.000,247.319 0.975,247.120 2.167 M116.431 32.833 C 117.002 33.767,122.316 41.764,127.395 49.333 C 135.020 60.695,147.090 78.891,148.333 80.898 C 149.910 83.443,155.629 92.152,157.594 95.000 C 158.352 96.100,162.343 102.100,166.462 108.333 C 175.567 122.113,181.480 130.670,182.215 131.129 C 182.842 131.521,196.667 117.543,196.667 116.517 C 196.667 115.582,194.129 112.724,181.701 99.667 C 175.769 93.433,166.734 83.845,161.624 78.359 C 156.514 72.873,147.083 62.828,140.667 56.036 C 134.250 49.244,126.600 41.091,123.667 37.919 C 119.177 33.065,114.609 29.854,116.431 32.833 M329.313 74.692 C 289.505 114.958,288.000 116.522,288.000 117.647 C 288.000 118.245,289.364 118.683,292.167 118.985 C 294.458 119.233,299.291 120.012,302.905 120.717 C 306.520 121.423,310.002 122.000,310.644 122.000 C 311.824 122.000,312.669 120.816,323.718 103.667 C 326.789 98.900,330.514 93.200,331.995 91.000 C 333.476 88.800,336.680 83.850,339.114 80.000 C 343.315 73.354,347.601 66.762,356.020 54.000 C 368.429 35.189,368.168 35.390,329.313 74.692 M231.667 115.504 C 229.467 115.871,227.583 116.240,227.482 116.326 C 227.380 116.411,228.078 118.954,229.032 121.975 L 230.768 127.470 233.884 127.006 C 235.598 126.751,237.048 126.495,237.106 126.438 C 237.424 126.124,236.413 114.681,236.073 114.752 C 235.849 114.799,233.867 115.138,231.667 115.504 M246.330 118.751 C 247.057 126.199,246.940 126.000,250.560 126.000 L 253.761 126.000 254.554 120.896 C 255.495 114.846,255.997 115.571,250.458 114.984 L 245.915 114.502 246.330 118.751 M25.333 116.219 C 25.333 116.687,27.208 117.968,29.500 119.065 C 35.185 121.785,54.814 132.045,55.785 132.803 C 56.217 133.141,59.367 134.857,62.785 136.617 C 70.180 140.424,76.560 143.789,91.333 151.677 C 97.383 154.907,104.583 158.727,107.333 160.166 C 110.083 161.604,113.833 163.632,115.667 164.671 C 117.500 165.710,122.150 168.188,126.000 170.178 C 129.850 172.168,134.950 174.885,137.333 176.216 C 144.003 179.941,142.844 181.228,153.816 157.921 C 157.055 151.042,157.121 151.188,150.000 149.512 C 144.621 148.247,137.625 146.301,106.000 137.277 C 98.483 135.133,90.533 132.956,88.333 132.440 C 86.133 131.924,78.333 129.794,71.000 127.706 C 29.460 115.879,25.333 114.841,25.333 116.219 M394.333 118.469 C 391.767 119.790,386.667 122.136,383.000 123.681 C 379.333 125.226,373.258 128.001,369.500 129.846 C 365.742 131.691,362.667 133.099,362.667 132.973 C 362.667 132.848,358.591 134.678,353.609 137.040 C 348.627 139.401,344.307 141.333,344.010 141.333 C 343.019 141.333,329.333 148.112,329.333 148.603 C 329.333 149.313,333.496 151.206,340.635 153.741 L 346.937 155.979 352.404 152.266 C 355.411 150.224,358.483 147.983,359.231 147.286 C 359.979 146.589,361.883 145.189,363.462 144.175 C 365.041 143.162,368.283 140.894,370.667 139.137 C 382.154 130.668,386.824 127.331,387.227 127.306 C 387.469 127.291,389.317 125.949,391.333 124.324 C 393.350 122.698,396.123 120.685,397.495 119.851 C 403.189 116.388,400.585 115.249,394.333 118.469 M265.087 118.833 C 264.866 119.658,264.681 122.032,264.676 124.108 L 264.667 127.883 267.397 128.344 C 270.620 128.889,270.823 128.725,272.619 124.142 C 274.536 119.249,274.453 119.000,270.616 118.114 C 266.003 117.050,265.549 117.109,265.087 118.833 M213.333 119.483 C 211.317 120.226,209.577 120.911,209.466 121.006 C 209.356 121.101,210.548 123.763,212.115 126.922 C 215.183 133.109,215.552 133.343,219.585 131.658 C 222.374 130.492,222.340 130.706,220.909 123.500 C 219.659 117.201,219.607 117.173,213.333 119.483 M196.934 126.421 C 194.404 127.752,192.251 128.910,192.151 128.992 C 192.050 129.075,193.343 131.011,195.024 133.294 C 196.704 135.577,198.410 138.170,198.813 139.056 C 199.734 141.077,200.085 141.067,204.076 138.894 C 207.968 136.776,207.913 137.387,204.885 129.985 C 202.041 123.030,202.763 123.354,196.934 126.421 M282.698 125.584 C 281.800 127.946,280.549 132.779,280.790 132.955 C 285.004 136.034,285.213 136.007,288.220 131.978 C 291.840 127.130,291.838 127.048,288.077 125.430 C 283.890 123.629,283.437 123.642,282.698 125.584 M181.500 136.087 C 176.306 140.290,176.292 140.134,182.370 145.948 L 187.406 150.766 190.349 148.550 C 194.125 145.706,194.123 144.454,190.333 138.596 C 188.683 136.045,187.333 133.668,187.333 133.313 C 187.333 131.968,185.531 132.826,181.500 136.087 M296.725 136.462 L 294.450 140.219 296.391 141.773 C 298.997 143.857,299.269 143.795,302.663 140.337 L 305.603 137.342 303.337 135.004 C 300.290 131.860,299.391 132.058,296.725 136.462 M239.366 135.821 C 230.096 137.560,206.186 149.145,198.552 155.597 C 178.380 172.645,165.970 186.011,162.820 194.081 C 161.621 197.153,160.845 198.617,161.097 197.333 C 162.032 192.569,162.134 192.694,155.333 190.212 C 145.063 186.463,145.950 186.199,143.947 193.601 C 141.815 201.482,141.358 200.966,151.410 202.009 C 159.171 202.814,159.793 202.980,159.484 204.164 C 158.945 206.225,157.842 206.211,150.612 204.048 C 142.632 201.661,141.560 201.570,141.030 203.239 C 140.620 204.530,129.694 206.359,112.000 208.096 C 104.247 208.858,73.572 212.663,58.903 214.683 C 53.716 215.398,46.066 216.276,41.903 216.636 C 21.720 218.381,-1.080 221.811,0.044 222.933 C 0.435 223.323,106.131 228.590,123.500 229.086 L 137.333 229.480 137.333 235.073 L 137.333 240.667 141.045 240.667 C 144.588 240.667,144.735 240.735,144.281 242.163 C 142.364 248.206,146.832 253.992,153.418 253.998 C 158.235 254.001,159.517 256.868,155.622 258.925 C 154.183 259.685,145.105 265.504,135.000 272.143 C 131.333 274.552,128.025 276.630,127.648 276.761 C 127.271 276.893,123.821 279.064,119.981 281.588 C 105.856 290.869,102.207 293.243,96.333 296.964 C 89.388 301.366,84.947 304.233,73.365 311.794 C 68.764 314.798,64.100 317.733,63.000 318.317 C 61.900 318.902,59.800 320.251,58.333 321.317 C 56.867 322.382,54.017 324.247,52.000 325.460 C 45.919 329.119,50.426 328.788,60.942 324.804 C 76.781 318.802,84.902 315.806,93.000 312.975 C 97.400 311.437,103.850 309.060,107.333 307.692 C 110.817 306.324,115.017 304.794,116.667 304.291 C 118.317 303.788,123.858 301.717,128.981 299.688 C 134.104 297.660,138.629 296.000,139.037 296.000 C 139.445 296.000,143.598 294.500,148.268 292.667 C 156.747 289.337,156.766 289.333,164.545 289.343 C 174.483 289.356,174.694 289.477,178.909 297.589 L 182.333 304.178 192.667 303.805 C 220.089 302.813,255.672 292.568,266.080 282.667 C 273.192 275.901,267.336 274.060,236.333 273.316 C 196.399 272.357,186.512 269.029,185.005 256.039 C 184.610 252.643,184.235 251.784,182.656 250.659 C 180.889 249.401,180.820 249.173,181.496 246.827 C 181.891 245.456,182.241 240.283,182.274 235.333 C 182.350 223.892,187.527 212.000,192.432 212.000 C 195.268 212.000,207.236 205.260,210.661 201.733 C 216.111 196.124,224.075 194.732,230.423 198.279 C 234.432 200.520,234.147 200.590,238.690 196.256 C 244.290 190.915,247.047 179.831,244.455 173.077 C 243.441 170.433,222.294 172.966,212.135 176.947 C 206.782 179.045,202.719 181.892,196.500 187.904 C 193.658 190.650,191.343 192.621,191.354 192.282 C 191.420 190.337,199.166 180.773,206.799 173.211 C 212.760 167.306,222.896 160.464,236.000 153.500 C 238.750 152.038,243.796 149.136,247.213 147.049 C 255.207 142.168,254.811 142.259,256.277 144.981 C 257.259 146.806,258.719 147.890,262.934 149.927 C 293.822 164.852,294.542 165.257,299.966 170.747 C 303.202 174.024,308.613 180.927,311.529 185.500 C 312.815 187.517,314.667 187.957,314.667 186.245 C 314.667 178.383,298.282 155.779,289.048 150.902 C 287.067 149.856,282.451 147.275,278.790 145.167 C 275.129 143.058,271.764 141.333,271.312 141.333 C 270.860 141.333,269.555 140.756,268.412 140.050 C 262.074 136.137,248.342 134.138,239.366 135.821 M168.435 147.951 C 163.713 152.901,163.568 152.302,170.678 157.196 C 177.728 162.049,176.966 161.868,179.210 159.223 C 183.087 154.650,183.060 154.801,180.527 152.109 C 179.264 150.766,177.253 148.392,176.059 146.833 C 173.267 143.189,172.929 143.239,168.435 147.951 M309.391 146.973 L 306.450 149.823 307.937 151.911 C 309.714 154.407,309.145 154.361,313.648 152.370 C 317.878 150.499,317.992 150.144,315.500 146.621 C 313.244 143.431,313.037 143.443,309.391 146.973 M159.709 158.363 C 153.969 167.123,153.926 167.366,157.836 168.944 C 159.576 169.646,162.556 170.921,164.457 171.777 C 169.018 173.830,169.019 173.830,171.319 170.167 C 174.012 165.880,174.061 166.009,167.859 161.047 C 161.712 156.129,161.268 155.983,159.709 158.363 M150.186 175.833 C 146.999 183.030,146.942 183.768,149.500 184.608 C 151.124 185.142,163.641 188.000,164.353 188.000 C 164.658 188.000,168.138 179.249,167.919 179.032 C 167.190 178.308,153.648 171.333,152.973 171.333 C 152.536 171.333,151.282 173.358,150.186 175.833 M271.000 172.935 C 267.222 174.603,266.435 176.164,266.127 182.594 C 265.523 195.227,271.091 203.794,276.788 199.000 C 283.191 193.613,297.227 198.715,303.031 208.539 C 305.783 213.199,313.659 211.651,316.005 205.988 C 320.795 194.424,287.741 173.934,275.835 181.088 C 275.229 181.452,275.242 181.290,275.885 180.498 C 277.293 178.760,283.613 177.782,290.527 178.231 C 295.706 178.568,296.785 178.469,297.109 177.622 C 298.286 174.556,276.279 170.605,271.000 172.935 M245.317 207.650 C 236.770 212.295,232.103 226.000,239.067 226.000 C 244.581 226.000,245.511 228.484,240.646 230.212 C 233.168 232.867,230.000 236.368,230.000 241.973 C 230.000 245.343,231.781 245.680,233.571 242.649 C 239.902 231.932,261.446 231.641,272.130 242.128 C 276.890 246.800,278.000 247.024,278.000 243.312 C 278.000 239.660,276.625 236.644,273.924 234.373 C 272.682 233.330,269.756 230.725,267.420 228.586 L 263.173 224.696 267.753 224.848 L 272.333 225.000 272.205 222.149 C 271.670 210.233,256.055 201.812,245.317 207.650 M239.961 241.299 C 236.923 242.221,235.367 243.334,234.340 245.320 C 232.550 248.782,232.457 248.757,245.167 248.279 C 254.677 247.921,258.546 248.059,264.877 248.984 C 273.683 250.272,273.837 250.241,272.415 247.491 C 269.975 242.772,248.567 238.687,239.961 241.299 " stroke="none" fill="#000000" fill-rule="evenodd"></path></g></svg>